<?xml version="1.0" encoding="UTF-8"?>
<svg width="17px" height="14px" viewBox="0 0 17 14" version="1.1" xmlns="http://www.w3.org/2000/svg" xmlns:xlink="http://www.w3.org/1999/xlink">
    <title>管户客户1</title>
    <defs>
        <linearGradient x1="26.137584%" y1="16.0899654%" x2="62.1568514%" y2="73.2122911%" id="linearGradient-1">
            <stop stop-color="#E1B885" offset="0%"></stop>
            <stop stop-color="#C48B54" offset="100%"></stop>
        </linearGradient>
    </defs>
    <g id="页面-1" stroke="none" stroke-width="1" fill="none" fill-rule="evenodd">
        <g id="管户客户-搜索" transform="translate(-47.000000, -135.000000)" fill="url(#linearGradient-1)" fill-rule="nonzero">
            <g id="编组-4" transform="translate(0.000000, 118.000000)">
                <path d="M53.3749879,17 L53.3749878,17 C55.4287954,17 57.0937282,18.6250422 57.0937282,20.6296259 C57.0937282,20.6296259 57.0937282,20.6296259 57.0937282,20.6296259 L57.0937282,21.666665 L57.0937282,21.666665 C57.0937282,23.671256 55.4287879,25.2962909 53.3749878,25.2962909 C51.3211801,25.2962909 49.6562474,23.6712487 49.6562474,21.666665 L49.6562474,20.6296259 L49.6562474,20.6296265 C49.6562474,18.6250355 51.3211876,17 53.3749878,17 C53.3749878,17 53.3749878,17 53.3749878,17 L53.3749879,17 Z M50.4520514,25.360076 L50.4520516,25.360076 C51.2884787,25.9925172 52.3169376,26.3349659 53.3749881,26.3333374 C54.4757385,26.3333374 55.4898936,25.9703748 56.2979245,25.360076 L56.2979246,25.360076 C57.7352202,25.9616953 58.942702,26.9886111 59.7499859,28.2959235 L59.7499859,28.9259242 L59.7499859,28.9259242 C59.7499859,30.0714051 58.7985922,31 57.6249875,31 C57.6249875,31 57.6249875,31 57.6249875,31 L49.1249987,31 L49.1249987,31 C47.9513939,31 47,30.0714051 47,28.9259242 C47,28.9259242 47,28.9259242 47,28.9259242 L47,28.2959235 L47,28.2959238 C47.8072889,26.9886018 49.0147658,25.9616884 50.4520613,25.360076 L50.4520514,25.360076 Z M59.2187442,18.5555574 L63.468751,18.5555574 L63.468751,18.5555574 C63.7621528,18.5555574 64,18.7877064 64,19.0740758 C64,19.0740758 64,19.0740758 64,19.0740758 L64,20.1111149 L64,20.1111149 C64,20.3974858 63.7621513,20.6296333 63.468751,20.6296333 C63.468751,20.6296333 63.468751,20.6296333 63.468751,20.6296333 L59.2187441,20.6296333 L59.2187442,20.6296333 C58.9253424,20.6296333 58.6874952,20.3974843 58.6874952,20.1111149 C58.6874952,20.1111149 58.6874952,20.1111149 58.6874952,20.1111149 L58.6874952,19.0740758 L58.6874952,19.0740758 C58.6874952,18.787705 58.9253438,18.5555574 59.2187442,18.5555574 C59.2187442,18.5555574 59.2187442,18.5555574 59.2187442,18.5555574 L59.2187442,18.5555574 Z M60.2812447,22.7037186 L63.4687435,22.7037186 L63.4687435,22.7037186 C63.7621453,22.7037186 63.9999925,22.9358676 63.9999925,23.222237 C63.9999925,23.222237 63.9999925,23.222237 63.9999925,23.222237 L63.9999925,24.2592761 L63.9999925,24.2592761 C63.9999925,24.545647 63.7621439,24.7777945 63.4687435,24.7777945 C63.4687435,24.7777945 63.4687435,24.7777945 63.4687435,24.7777945 L60.2812446,24.7777945 L60.2812446,24.7777945 C59.9878428,24.7777945 59.7499956,24.5456455 59.7499956,24.2592761 C59.7499956,24.2592761 59.7499956,24.2592761 59.7499956,24.2592761 L59.7499956,23.222237 L59.7499956,23.222237 C59.7499956,22.9358661 59.9878443,22.7037186 60.2812446,22.7037186 C60.2812446,22.7037186 60.2812446,22.7037186 60.2812446,22.7037186 L60.2812447,22.7037186 Z M61.8749941,26.8518799 L63.4687435,26.8518799 L63.4687435,26.8518799 C63.7621453,26.8518799 63.9999925,27.0840289 63.9999925,27.3703983 C63.9999925,27.3703983 63.9999925,27.3703983 63.9999925,27.3703983 L63.9999925,28.4074374 L63.9999925,28.4074374 C63.9999925,28.6938082 63.7621439,28.9259557 63.4687435,28.9259557 C63.4687435,28.9259557 63.4687435,28.9259557 63.4687435,28.9259557 L61.8749941,28.9259557 L61.874994,28.9259557 C61.5815922,28.9259557 61.3437451,28.6938068 61.3437451,28.4074374 C61.3437451,28.4074374 61.3437451,28.4074374 61.3437451,28.4074374 L61.3437451,27.3703983 L61.3437451,27.3703984 C61.3437451,27.0840275 61.5815937,26.8518799 61.874994,26.8518799 C61.874994,26.8518799 61.874994,26.8518799 61.874994,26.8518799 L61.8749941,26.8518799 Z" id="管户客户1"></path>
            </g>
        </g>
    </g>
</svg>