<?xml version="1.0" encoding="UTF-8"?>
<svg width="18px" height="15px" viewBox="0 0 18 15" version="1.1" xmlns="http://www.w3.org/2000/svg" xmlns:xlink="http://www.w3.org/1999/xlink">
    <title>协管客户2</title>
    <defs>
        <linearGradient x1="26.137584%" y1="9.5786026%" x2="62.1568514%" y2="77.6694864%" id="linearGradient-1">
            <stop stop-color="#E1B885" offset="0%"></stop>
            <stop stop-color="#C48B54" offset="100%"></stop>
        </linearGradient>
    </defs>
    <g id="页面-1" stroke="none" stroke-width="1" fill="none" fill-rule="evenodd">
        <path d="M15.8218026,9.58518519 C15.8527492,9.34259259 15.869254,9.09814815 15.869254,8.85185185 C15.869254,8.02222222 15.6877006,7.21666667 15.3307831,6.45925926 C14.9862443,5.72777778 14.4910987,5.07037037 13.8639142,4.50555556 C13.3460744,4.04074074 12.7560259,3.65740741 12.1082103,3.36296296 C12.1535987,3.17407407 12.1762928,2.97962963 12.1762928,2.77777778 C12.1762928,1.24444444 10.7898851,0 9.08163265,0 C7.37338023,0 5.98697246,1.24444444 5.98697246,2.77777778 C5.98697246,2.96111111 6.00760353,3.13888889 6.04473945,3.31296296 C5.35153557,3.61296296 4.7243511,4.01296296 4.1776278,4.50555556 C3.54838023,5.07037037 3.0552977,5.72777778 2.71075887,6.45925926 C2.35384139,7.21851852 2.17228799,8.02222222 2.17228799,8.85185185 C2.17228799,9.11666667 2.19085595,9.37962963 2.22799188,9.63888889 C1.24801615,10.1055556 0.581632653,11.0296296 0.581632653,12.0925926 C0.581632653,13.6259259 1.96804042,14.8703704 3.67629285,14.8703704 C4.43551615,14.8703704 5.13284625,14.6240741 5.67131712,14.2166667 C5.89206955,14.3277778 6.11901129,14.4277778 6.35420547,14.5166667 C7.20007926,14.837037 8.0954676,15 9.01973945,15 C9.94401129,15 10.8414628,14.837037 11.6852734,14.5166667 C11.947288,14.4166667 12.198987,14.3037037 12.4424336,14.1777778 C12.9891569,14.6092593 13.7029919,14.8703704 14.4869725,14.8703704 C16.1952249,14.8703704 17.5816327,13.6259259 17.5816327,12.0925926 C17.5816327,10.987037 16.8616084,10.0333333 15.8218026,9.58518519 Z M6.28685653,13.4742329 C6.45476698,13.134343 6.54805056,12.7537372 6.54805056,12.3536585 C6.54805056,10.8878836 5.29431922,9.69826908 3.7495431,9.69826908 C3.70103564,9.69826908 3.65252818,9.70003934 3.60402071,9.7018096 C3.58909534,9.55487805 3.58163265,9.40617624 3.58163265,9.25570417 C3.58163265,7.98819827 4.10215504,6.79681353 5.04618489,5.90106216 C5.43797594,5.52930763 5.88387146,5.22659323 6.36521474,5 C6.8745431,5.66915814 7.70290131,6.10464201 8.6376028,6.10464201 C9.55364758,6.10464201 10.3689461,5.68686074 10.8782744,5.03894571 C11.329767,5.26022817 11.7476774,5.54878049 12.1170804,5.90106216 C13.0611103,6.79681353 13.5816327,7.98819827 13.5816327,9.25570417 C13.5816327,9.40440598 13.57417,9.55310779 13.5592446,9.69826908 L13.5256625,9.69826908 C11.9808864,9.69826908 10.727155,10.8878836 10.727155,12.3536585 C10.727155,12.7360346 10.8129759,13.0989378 10.965961,13.4282061 C10.2420804,13.8017309 9.42864758,14 8.58163265,14 C7.77006549,14 6.98834907,13.8176633 6.28685653,13.4742329 Z" id="协管客户2" fill="url(#linearGradient-1)" fill-rule="nonzero"></path>
    </g>
</svg>