<?xml version="1.0" encoding="UTF-8"?>
<svg width="26px" height="26px" viewBox="0 0 26 26" version="1.1" xmlns="http://www.w3.org/2000/svg" xmlns:xlink="http://www.w3.org/1999/xlink">
    <title>查看日志</title>
    <defs>
        <linearGradient x1="50%" y1="5.08983186%" x2="50%" y2="100%" id="linearGradient-1">
            <stop stop-color="#DDBF93" offset="0%"></stop>
            <stop stop-color="#C1A170" offset="100%"></stop>
        </linearGradient>
    </defs>
    <g id="页面-1" stroke="none" stroke-width="1" fill="none" fill-rule="evenodd">
        <g id="客户详情" transform="translate(-241.000000, -329.000000)">
            <g id="查看日志" transform="translate(241.000000, 329.000000)">
                <rect id="矩形" fill-opacity="0.184331294" fill="#C9AC80" x="0" y="0" width="26" height="26" rx="13"></rect>
                <path d="M8.5,6.73684211 L8.5,8.10904539 C8.5,8.79940132 9.05964406,9.35904539 9.75,9.35904539 C10.3972087,9.35904539 10.9295339,8.86717072 10.9935464,8.23685063 L11,8.10904539 L11,6.73684211 L15.642,6.73684211 L15.6428571,8.10904539 C15.6428571,8.75625408 16.1347318,9.28857929 16.7650519,9.35259178 L16.8928571,9.35904539 C17.5400658,9.35904539 18.072391,8.86717072 18.1364035,8.23685063 L18.1428571,8.10904539 L18.142,6.73684211 L20.3167702,6.73684211 C20.6941076,6.73684211 21,7.04273451 21,7.42007192 L21,19.3167702 C21,19.6941076 20.6941076,20 20.3167702,20 L6.68322981,20 C6.30589241,20 6,19.6941076 6,19.3167702 L6,7.42007192 C6,7.04273451 6.30589241,6.73684211 6.68322981,6.73684211 L8.5,6.73684211 Z M15.6105287,12.2521291 L12.9384734,15.1707084 L11.0062215,13.3307665 C10.7888175,13.1237487 10.449893,13.1377337 10.2492124,13.3620031 C10.0485319,13.5862725 10.0620888,13.9358998 10.2794928,14.1429177 L12.6009214,16.353444 C12.8165726,16.5587929 13.1522457,16.546921 13.353757,16.3268183 L16.3894713,13.0110288 C16.5926205,12.7891371 16.5829331,12.4393729 16.367834,12.2298085 C16.152735,12.0202442 15.8136778,12.0302374 15.6105287,12.2521291 Z M9.75,6 C10.0458668,6 10.2857143,6.23984746 10.2857143,6.53571429 L10.2857143,8.04323308 C10.2857143,8.33909991 10.0458668,8.57894737 9.75,8.57894737 C9.45413317,8.57894737 9.21428571,8.33909991 9.21428571,8.04323308 L9.21428571,6.53571429 C9.21428571,6.23984746 9.45413317,6 9.75,6 Z M16.8928571,6 C17.188724,6 17.4285714,6.23984746 17.4285714,6.53571429 L17.4285714,8.04323308 C17.4285714,8.33909991 17.188724,8.57894737 16.8928571,8.57894737 C16.5969903,8.57894737 16.3571429,8.33909991 16.3571429,8.04323308 L16.3571429,6.53571429 C16.3571429,6.23984746 16.5969903,6 16.8928571,6 Z" id="形状结合" fill="url(#linearGradient-1)"></path>
            </g>
        </g>
    </g>
</svg>