<?xml version="1.0" encoding="UTF-8"?>
<svg width="30px" height="30px" viewBox="0 0 30 30" version="1.1" xmlns="http://www.w3.org/2000/svg" xmlns:xlink="http://www.w3.org/1999/xlink">
    <title>客户管理1</title>
    <defs>
        <linearGradient x1="31.3698096%" y1="0%" x2="59.4912626%" y2="84.2262863%" id="linearGradient-1">
            <stop stop-color="#E1B885" offset="0%"></stop>
            <stop stop-color="#C48B54" offset="100%"></stop>
        </linearGradient>
        <linearGradient x1="26.137584%" y1="32.8614825%" x2="62.1568514%" y2="61.7317561%" id="linearGradient-2">
            <stop stop-color="#E1B885" offset="0%"></stop>
            <stop stop-color="#C48B54" offset="100%"></stop>
        </linearGradient>
    </defs>
    <g id="页面-1" stroke="none" stroke-width="1" fill="none" fill-rule="evenodd">
        <g id="管户客户" transform="translate(-47.000000, -736.000000)">
            <g id="编组-3" transform="translate(0.000000, 720.000000)">
                <g id="编组-2" transform="translate(0.000000, 16.000000)">
                    <g id="客户管理1" transform="translate(47.000000, 0.000000)">
                        <rect id="矩形" x="0" y="0" width="30" height="30"></rect>
                        <g id="客户管理" transform="translate(0.000000, 4.000000)" fill-rule="nonzero">
                            <path d="M23.3079924,15.7558662 L23.3079922,15.7558658 C22.7155213,14.8796484 21.9608068,14.124936 21.0845937,13.5324673 L21.084594,13.5324675 C20.1591086,12.8914118 19.1450581,12.3887866 18.0744799,12.0404687 L16.7100147,11.536477 L17.8532143,10.5991752 L17.8532141,10.5991754 C20.4818727,8.73123193 21.0985393,5.08602204 19.2305958,2.45738493 C18.2240519,1.04093172 16.6389333,0.146373109 14.906088,0.0169081496 C14.7544806,0.00564003602 14.6008249,0 14.4451189,0 L14.445119,0 C12.9742544,-0.00210559495 11.5578098,0.556118769 10.4838694,1.56115013 L10.4838693,1.56115023 C8.11768551,3.75208577 7.97560921,7.44634883 10.1665276,9.81253258 C10.4380946,10.1058225 10.7390609,10.3704544 11.0646891,10.6022602 L12.2124993,11.539562 L10.8464979,12.0450898 L10.8464985,12.0450896 C9.77711281,12.3930981 8.76374335,12.8940906 7.83790991,13.5324779 L7.8379105,13.5324775 C6.95838023,14.124553 6.20006705,14.879216 5.60374836,15.7558759 L5.60374852,15.7558757 C5.05163182,16.551677 4.74790694,17.4933337 4.73098368,18.4617492 C4.73098368,19.323759 4.98605285,19.9983088 5.51155684,20.5437868 C6.82070624,21.8867398 9.60033782,21.9973715 12.5797291,21.9973715 L15.413134,21.9973715 C18.7766663,22.0112005 21.9542727,22.0234931 23.3878833,20.5514696 C23.9149234,20.0121383 24.1699927,19.3222228 24.1699927,18.4648215 L24.1699927,18.464826 C24.1529363,17.4976029 23.8509494,16.5569022 23.3018384,15.7604779 L23.3079924,15.7558662 Z" id="路径" fill="url(#linearGradient-1)"></path>
                            <path d="M6.96825131,12.2527072 L6.96825226,12.2527065 C7.67138707,11.7651169 8.42134496,11.3487597 9.20701226,11.0098022 L9.20701226,11.0098024 C6.96771534,8.75305023 6.43329104,5.31262875 7.88249721,2.48307444 L7.88249705,2.48307444 C5.22807867,2.33176038 2.95359031,4.3606237 2.80225424,7.0146662 C2.70787717,8.66980757 3.47201304,10.257029 4.82475214,11.2156589 L4.82475203,11.2156589 C3.99918626,11.4859553 3.216759,11.8734931 2.50147262,12.3663821 L2.50147242,12.3663823 C1.80361847,12.8375622 1.20227458,13.4377768 0.729819861,14.1347157 L0.729820142,14.1347153 C0.267849809,14.8041279 0.0144241924,15.5953037 0.00149058718,16.4085023 L0.00149048129,16.4085054 C-0.0224048916,17.1202365 0.241847141,17.8115129 0.734430587,18.3258662 C1.33368835,18.9404046 2.22796551,19.2476748 3.28819458,19.40131 L3.28819459,19.40131 C3.22936023,19.0841175 3.20004026,18.7621582 3.20061067,18.4395567 L3.20061039,18.4395792 C3.21618361,17.1711636 3.60818654,15.935941 4.32689538,14.8906121 L4.3268952,14.8906124 C5.03104407,13.8509395 5.92760502,12.9555445 6.96825107,12.2527153 L6.96825131,12.2527072 Z M28.181985,14.1347311 L28.181985,14.134731 C27.7093777,13.4383441 27.1080446,12.8386602 26.4103324,12.3679313 L26.4103319,12.367931 C25.6951358,11.8745027 24.9127064,11.4864473 24.0870525,11.2156718 L24.0870526,11.2156718 C26.253367,9.67450441 26.7599905,6.66923638 25.2186034,4.5032217 C24.2609666,3.15750517 22.6801578,2.39667619 21.0308438,2.48769297 L21.0308438,2.48769298 C22.4800564,5.31724729 21.9456321,8.75766877 19.7063286,11.014421 L19.7063286,11.0144209 C20.4920021,11.3533784 21.24196,11.7697356 21.9450884,12.2573252 L21.9450883,12.2573251 C22.98544,12.9592607 23.8819816,13.8535924 24.5864442,14.8921504 L24.5864444,14.8921507 C25.3051576,15.9374818 25.697164,17.1727044 25.7127423,18.4411178 L25.7127424,18.4411563 C25.7133104,18.7637578 25.6839881,19.0857171 25.6251514,19.4029096 C26.6853783,19.2492749 27.5796554,18.9420064 28.1789153,18.3274659 L28.1789155,18.3274657 C28.6714989,17.8131124 28.9357505,17.121836 28.9118534,16.410105 L28.9118534,16.4101045 C28.8987779,15.5962014 28.6448024,14.804422 28.1819942,14.1347279 L28.181985,14.1347311 Z" id="形状" fill="url(#linearGradient-2)" opacity="0.499273256"></path>
                        </g>
                    </g>
                </g>
            </g>
        </g>
    </g>
</svg>