<?xml version="1.0" encoding="UTF-8"?>
<svg width="30px" height="30px" viewBox="0 0 30 30" version="1.1" xmlns="http://www.w3.org/2000/svg" xmlns:xlink="http://www.w3.org/1999/xlink">
    <title>事件营销1</title>
    <g id="页面-1" stroke="none" stroke-width="1" fill="none" fill-rule="evenodd">
        <g id="管户客户" transform="translate(-298.000000, -736.000000)">
            <g id="编组-3" transform="translate(0.000000, 720.000000)">
                <g id="编组-2" transform="translate(0.000000, 16.000000)">
                    <g id="事件营销1" transform="translate(298.000000, 0.000000)">
                        <g id="消息" transform="translate(1.000000, 1.000000)" fill-rule="nonzero">
                            <polygon id="路径" fill="#202425" opacity="0.01" points="0 0 28.000051 0 28.000051 28.000051 0 28.000051"></polygon>
                            <path d="M2.80000502,3.73333102 L2.80000502,3.73333088 C2.80000502,3.2178647 3.21787305,2.79999676 3.73333922,2.79999676 L24.2667008,2.79999676 L24.2667008,2.79999676 C24.782167,2.79999676 25.2000349,3.2178647 25.2000349,3.73333088 L25.2000349,4.666665 L25.2000349,4.666665 C25.2000349,5.18213117 24.782167,5.59999912 24.2667008,5.59999912 L3.73333918,5.59999912 L3.73333914,5.59999912 C3.21787297,5.59999912 2.80000502,5.18213117 2.80000502,4.666665 L2.80000502,3.73333088 L2.80000502,3.73333102 Z" id="路径" fill="#999999" opacity="0.504996366"></path>
                            <path d="M1.86667098,6.53333602 L1.86667102,6.53333602 C1.35120485,6.53333602 0.933336899,6.95120407 0.933336899,7.46667024 C0.933336899,7.46667026 0.933336899,7.46667028 0.933336899,7.4666703 L0.933336899,22.4000217 L0.933336899,22.4000216 C0.933336899,22.9154877 1.35120485,23.3333557 1.86667102,23.3333557 C1.86667103,23.3333557 1.86667104,23.3333557 1.86667105,23.3333557 L10.2666863,23.3333557 L13.6696222,26.7362916 L13.6696222,26.7362915 C13.8516367,26.9187668 14.1471133,26.9191404 14.3295894,26.7371258 C14.3298678,26.7368481 14.3301459,26.73657 14.3304236,26.7362916 L17.7333595,23.3333557 L26.1333748,23.3333557 L26.1333748,23.3333557 C26.6488409,23.3333558 27.0667089,22.9154878 27.0667089,22.4000216 C27.0667089,22.4000216 27.0667089,22.4000216 27.0667089,22.4000216 L27.0667089,7.46667017 L27.0667089,7.46667014 C27.0667089,6.95120397 26.6488409,6.53333602 26.1333748,6.53333602 C26.1333748,6.53333602 26.1333747,6.53333602 26.1333747,6.53333602 L1.86665473,6.53333602 L1.86667098,6.53333602 Z" id="路径" fill="#999999"></path>
                            <path d="M6.53333612,13.0666996 L6.5333361,13.0666996 C7.56426845,13.0665748 8.40010825,13.9022113 8.4002313,14.9331436 C8.40035608,15.964076 7.56471962,16.7999158 6.53378727,16.8000388 C6.53363666,16.8000388 6.53348604,16.8000388 6.53333542,16.8000388 L6.5333354,16.8000388 C5.50240306,16.799914 4.6667656,15.964076 4.66689138,14.9331436 C4.66701614,13.9023863 5.50257806,13.0668254 6.5333354,13.0666996 L6.53333612,13.0666996 Z M14.0000255,13.0666996 L14.0000255,13.0666996 C15.0309578,13.0665748 15.8667976,13.9022113 15.8669207,14.9331436 C15.8670455,15.964076 15.031409,16.7999158 14.0004767,16.8000388 C14.000326,16.8000388 14.0001754,16.8000388 14.0000248,16.8000388 L14.0000248,16.8000388 C12.9690924,16.799914 12.133455,15.964076 12.1335808,14.9331436 C12.1337055,13.9023863 12.9692674,13.0668254 14.0000248,13.0666996 L14.0000255,13.0666996 Z M21.4667149,13.0666996 L21.4667149,13.0666996 C22.4976472,13.0665748 23.333487,13.9022113 23.3336101,14.9331436 C23.3337348,15.964076 22.4980984,16.7999158 21.467166,16.8000388 C21.4670154,16.8000388 21.4668648,16.8000388 21.4667142,16.8000388 L21.4667142,16.8000388 C20.4357818,16.799914 19.6001444,15.964076 19.6002701,14.9331436 C19.6003949,13.9023863 20.4359568,13.0668254 21.4667142,13.0666996 L21.4667149,13.0666996 Z" id="形状" fill="#FFFFFF"></path>
                        </g>
                        <rect id="矩形" x="0" y="0" width="30" height="30"></rect>
                    </g>
                </g>
            </g>
        </g>
    </g>
</svg>