<?xml version="1.0" encoding="UTF-8"?>
<svg width="66px" height="66px" viewBox="0 0 66 66" version="1.1" xmlns="http://www.w3.org/2000/svg" xmlns:xlink="http://www.w3.org/1999/xlink">
    <title>头像</title>
    <defs>
        <circle id="path-1" cx="24" cy="24" r="24"></circle>
        <filter x="-30.4%" y="-22.1%" width="160.8%" height="160.8%" filterUnits="objectBoundingBox" id="filter-3">
            <feMorphology radius="0.6" operator="dilate" in="SourceAlpha" result="shadowSpreadOuter1"></feMorphology>
            <feOffset dx="0" dy="4" in="shadowSpreadOuter1" result="shadowOffsetOuter1"></feOffset>
            <feGaussianBlur stdDeviation="4" in="shadowOffsetOuter1" result="shadowBlurOuter1"></feGaussianBlur>
            <feComposite in="shadowBlurOuter1" in2="SourceAlpha" operator="out" result="shadowBlurOuter1"></feComposite>
            <feColorMatrix values="0 0 0 0 0.0431372549   0 0 0 0 0.0745098039   0 0 0 0 0.105882353  0 0 0 0.0952250874 0" type="matrix" in="shadowBlurOuter1"></feColorMatrix>
        </filter>
    </defs>
    <g id="页面-1" stroke="none" stroke-width="1" fill="none" fill-rule="evenodd">
        <g id="客户详情" transform="translate(-7.000000, -115.000000)">
            <g id="头像" transform="translate(16.000000, 120.000000)">
                <mask id="mask-2" fill="white">
                    <use xlink:href="#path-1"></use>
                </mask>
                <g>
                    <use fill="black" fill-opacity="1" filter="url(#filter-3)" xlink:href="#path-1"></use>
                    <use stroke="#FFFFFF" stroke-width="1.2" fill="#FFFFFF" fill-rule="evenodd" xlink:href="#path-1"></use>
                </g>
                <g mask="url(#mask-2)" fill-rule="nonzero">
                    <g transform="translate(0.000000, 0.000000)">
                        <path d="M0,23.9273863 C0,37.1418896 10.745394,47.8547726 24,47.8547726 C37.254606,47.8547726 48,37.1418896 48,23.9273863 C48,10.7128831 37.254606,0 24,0 C10.745394,0 0,10.7128831 0,23.9273863 Z" id="路径" fill="#E6E6E6"></path>
                        <path d="M2.18424593,23.9273863 C2.18424593,35.9415513 11.9547215,45.6824656 24.0053465,45.6824656 C36.0559715,45.6824656 45.8264471,35.9415513 45.8264471,23.9273863 C45.8264471,11.9132213 36.0559715,2.17230703 24.0053465,2.17230703 C11.9547215,2.17230703 2.18424593,11.9132213 2.18424593,23.9273863 Z" id="路径" fill="#E6E6E6"></path>
                        <path d="M23.871106,48 C30.6235346,48 36.7576815,45.3047897 41.230981,40.9416721 C40.8491115,39.4792465 40.418753,38.2525042 39.9338377,37.6421526 C37.994187,35.2249223 29.1869472,34.0465292 29.1869472,34.0465292 L23.8710992,35.4726938 L18.567359,34.0525716 C18.567359,34.0525716 9.80860161,35.2007561 7.86896787,37.617983 C7.37799192,38.2343771 6.93550851,39.4852923 6.54757836,40.9779332 C11.0209118,45.3229202 17.1308091,48 23.8710958,48 L23.871106,48 Z" id="路径" fill="#FCFCFC"></path>
                        <path d="M14.1069905,22.2712925 C13.9897874,21.0496941 14.6503872,19.9608788 15.5986651,19.8280956 C16.5469463,19.6953131 17.4099864,20.582298 17.5431726,21.8092098 C17.6603757,23.0308083 16.9997758,24.1196235 16.051498,24.2524067 C15.0978906,24.3851892 14.2295211,23.492891 14.1069905,22.2712925 M20.3134443,29.5371365 L20.3134443,35.8575955 L27.6546332,35.8575955 L27.6546332,29.5371365 L20.3134443,29.5371365 Z M31.9165557,24.2523932 C30.9682745,24.1461673 30.3289878,23.0732846 30.4941373,21.8463762 C30.6539596,20.6247777 31.548964,19.7112356 32.4919192,19.8174621 C33.4402004,19.923688 34.0794871,20.9965706 33.9143377,22.2234791 C33.7491879,23.4503875 32.8595109,24.3533097 31.9165557,24.2523932" id="形状" fill="#FFD9AC"></path>
                        <path d="M24.0053465,11.9780192 C24.0053465,11.9780192 16.200693,12.3073195 16.200693,16.4713871 L16.200693,24.916343 C16.200693,26.5522209 18.8537466,31.2155417 21.2351019,31.4120716 C22.4337704,31.5076748 23.9947011,31.635146 23.9947011,31.635146 C23.9947011,31.635146 25.5662874,31.5023635 26.7543003,31.4120716 C29.1356556,31.2102422 31.7621226,26.5522276 31.7621226,24.916343 L31.7621226,16.6891433 C31.7833885,12.5463489 24.0053465,11.9780192 24.0053465,11.9780192" id="路径" fill="#FEE1B9"></path>
                        <path d="M28.7893342,13.1252578 C26.5997656,12.1586023 24.0053125,11.9727059 24.0053125,11.9727059 L23.9946577,11.9727059 C23.6537032,11.9886397 16.2059892,12.3976086 16.2059892,16.4660737 L16.2059892,24.9110296 C16.2059892,26.5469075 18.8590429,31.2102283 21.2403982,31.4067583 C22.4390666,31.5023615 23.9999973,31.6298326 23.9999973,31.6298326 C23.9999973,31.6298326 25.5715836,31.4970501 26.7595965,31.4067583 C29.1409518,31.2049288 31.7940055,26.5469143 31.7940055,24.9110296 L31.7940055,16.6891535 C31.7833507,14.9417357 30.3928948,13.8263638 28.7893452,13.1252679" id="路径" fill="#FEE1B9"></path>
                        <path d="M19.2479552,33.9455313 L23.3500611,46.3952088 C23.5684851,46.4058314 23.786909,46.4058314 24.0053329,46.4058314 C24.2077748,46.4058314 24.4155435,46.4005201 24.6179857,46.3952088 L28.7200917,33.9455313 L23.9840251,34.9121867 L19.2479552,33.9455313 L19.2479552,33.9455313 Z" id="路径" fill="#E6E6E6"></path>
                        <polygon id="路径" fill="#D81E06" points="24.5487364 37.6262633 25.6248743 36.5533814 24.0000136 34.9281234 22.3911345 36.5533814 23.4672724 37.6262633 22.1300917 43.9201385 24.0000136 45.7844028 25.8699355 43.9201385 24.5487364 37.6262633"></polygon>
                        <polygon id="路径" fill="#FFFFFF" points="24.0053465 34.9175001 27.8304348 32.9948125 29.8015795 34.1526744 26.5944769 38.7204021 24.0053533 34.9175001"></polygon>
                        <polygon id="路径" fill="#FFFFFF" points="24.0159919 34.9175001 20.1962432 32.9894992 18.2250985 34.147361 22.098142 38.7150888 24.0160123 34.9175102"></polygon>
                        <path d="M32.1509239,21.4746308 L31.4050849,21.4746308 L30.4088587,14.5646464 C30.4088587,14.5646464 32.6730095,13.6776609 33.1418206,16.4023541 C33.6053057,19.1111139 32.1509205,21.4746308 32.1509205,21.4746308 M15.4547996,21.4746342 L16.2006386,21.4746342 L17.1968648,14.5646498 C17.1968648,14.5646498 14.932714,13.6776643 14.4639028,16.4023574 C14.0004178,19.1111173 15.454803,21.4746342 15.454803,21.4746342" id="形状" fill="#61402F"></path>
                        <path d="M16.3338451,15.2550782 C16.3338451,15.2550782 19.5036583,17.7142085 23.8987568,17.7142085 C28.2938655,17.7142085 32.4492663,16.3598268 34.3405027,12.6684816 C34.2339545,12.6950381 30.9682507,12.1107956 26.8821127,9.00368621 C21.7358424,5.07864801 12.0878736,10.8945071 16.3338451,15.2550748" id="路径" fill="#61402F"></path>
                    </g>
                </g>
            </g>
        </g>
    </g>
</svg>