<?xml version="1.0" encoding="UTF-8"?>
<svg width="30px" height="30px" viewBox="0 0 30 30" version="1.1" xmlns="http://www.w3.org/2000/svg" xmlns:xlink="http://www.w3.org/1999/xlink">
    <title>营销日志1</title>
    <g id="页面-1" stroke="none" stroke-width="1" fill="none" fill-rule="evenodd">
        <g id="管户客户" transform="translate(-173.000000, -736.000000)">
            <g id="编组-3" transform="translate(0.000000, 720.000000)">
                <g id="编组-2" transform="translate(0.000000, 16.000000)">
                    <g id="营销日志1" transform="translate(173.000000, 0.000000)">
                        <path d="M5,21.0528571 L5,21.9614286 C5,23.3271429 5.56428571,25 6.93571429,25 L23.0728571,25 C24.4357143,25 25,23.3271429 25,21.9614286 L25,21.0528571 C25,22.4157143 24.1414286,22.7771429 22.7771429,22.7771429 L7.22285714,22.7771429 C5.85,22.7771429 5,22.4171429 5,21.0528571 Z M5,6.92714286 L5,18.3257143 C5,19.6885714 5.85,20.5557143 7.22285714,20.5557143 L22.7785714,20.5557143 C24.1428571,20.5557143 25.0014286,19.6885714 25.0014286,18.3257143 L25.0014286,6.92714286 C25,5.56285714 24.4357143,5 23.0728571,5 L21.3642857,5 L21.3642857,7.06285714 C21.91,7.38285714 22.2742857,7.96285714 22.2742857,8.63571429 C22.2742857,9.63714286 21.4557143,10.4557143 20.4557143,10.4557143 C19.4557143,10.4557143 18.6371429,9.63857143 18.6371429,8.63571429 C18.6371429,7.96285714 19,7.38285714 19.5457143,7.06285714 L19.5457143,5 L10.4542857,5 L10.4542857,7.06285714 C10.9985714,7.38285714 11.3628571,7.96285714 11.3628571,8.63571429 C11.3628571,9.63714286 10.5442857,10.4557143 9.54428571,10.4557143 C8.54428571,10.4557143 7.72571429,9.63857143 7.72571429,8.63571429 C7.72571429,7.96285714 8.08857143,7.38285714 8.63428571,7.06285714 L8.63428571,5 L6.93428571,5 C5.56428571,5 5,5.56285714 5,6.92714286 Z" id="形状" fill="#999999" fill-rule="nonzero"></path>
                        <rect id="矩形" x="0" y="0" width="30" height="30"></rect>
                    </g>
                </g>
            </g>
        </g>
    </g>
</svg>