<?xml version="1.0" encoding="UTF-8"?>
<svg width="26px" height="26px" viewBox="0 0 26 26" version="1.1" xmlns="http://www.w3.org/2000/svg" xmlns:xlink="http://www.w3.org/1999/xlink">
    <title>营销日志</title>
    <defs>
        <linearGradient x1="50%" y1="5.08983186%" x2="50%" y2="100%" id="linearGradient-1">
            <stop stop-color="#DDBF93" offset="0%"></stop>
            <stop stop-color="#C1A170" offset="100%"></stop>
        </linearGradient>
    </defs>
    <g id="页面-1" stroke="none" stroke-width="1" fill="none" fill-rule="evenodd">
        <g id="客户详情" transform="translate(-48.000000, -329.000000)">
            <g id="营销日志" transform="translate(48.000000, 329.000000)">
                <rect id="矩形" fill-opacity="0.184331294" fill="#C9AC80" x="0" y="0" width="26" height="26" rx="13"></rect>
                <path d="M18.6217391,6 L16.7,6 L16.7,20.04 L18.6217391,20.04 C19.7521739,20.04 20.6,19.3278261 20.6,18.3104348 L20.6,7.78043478 C20.6,6.81391304 19.6956522,6 18.6217391,6 Z M6.84637681,6.05086957 C5.79130435,6.05086957 5,6.86478261 5,7.83130435 L5,10.7308696 L7.21565217,10.7308696 C7.32115942,10.7308696 7.42666667,10.8326087 7.42666667,10.9343478 L7.42666667,11.6973913 C7.42666667,11.7991304 7.32115942,11.9008696 7.21565217,11.9008696 L5,11.9008696 L5,14.2408696 L7.21565217,14.2408696 C7.32115942,14.2408696 7.42666667,14.3426087 7.42666667,14.4443478 L7.42666667,15.1565217 C7.42666667,15.2582609 7.32115942,15.36 7.21565217,15.36 L5,15.36 L5,18.3104348 C5,19.3278261 5.84405797,20.04 6.84637681,20.04 L15.92,20.04 L15.92,6 L6.84637681,6.05086957 Z M13.2534884,13.6389623 C13.4167442,13.6389623 13.5255814,13.8301887 13.5255814,13.9258019 C13.5255814,14.0692217 13.4167442,14.2126415 13.2534884,14.2126415 L11.5665116,14.2126415 L11.5665116,15.120967 C11.5665116,15.2643868 11.3488372,15.36 11.24,15.36 C11.0767442,15.36 10.9134884,15.2643868 10.9134884,15.120967 L10.9134884,14.2126415 L9.17209302,14.2126415 C9.00883721,14.2126415 8.9,14.0214151 8.9,13.9258019 C8.9,13.7823821 9.00883721,13.6389623 9.17209302,13.6389623 L10.9134884,13.6389623 L10.9134884,12.8740567 L9.17209302,12.8740567 C9.00883721,12.8740567 8.9,12.6828302 8.9,12.587217 C8.9,12.4437972 9.00883721,12.3003774 9.17209302,12.3003774 L10.4237209,12.3003774 L9.55302326,11.0574057 C9.55302326,10.9617925 9.60744186,10.8183727 9.77069767,10.7227595 C9.93395349,10.6749529 10.0972093,10.6271463 10.2060465,10.8183727 L11.24,12.3003774 L11.2944186,12.3003774 L12.3283721,10.8183727 C12.3827907,10.7227595 12.6548837,10.6749529 12.7637209,10.7227595 C12.9269767,10.7705661 12.9813953,10.9617925 12.9813953,11.0574057 L12.1106977,12.3003774 L13.307907,12.3003774 C13.4711628,12.3003774 13.58,12.4916038 13.58,12.587217 C13.58,12.7306368 13.4711628,12.8740567 13.307907,12.8740567 L11.6209302,12.8740567 L11.6209302,13.6389623 L13.2534884,13.6389623 Z" id="形状" fill="url(#linearGradient-1)"></path>
            </g>
        </g>
    </g>
</svg>