<?xml version="1.0" encoding="UTF-8"?>
<svg width="12px" height="12px" viewBox="0 0 12 12" version="1.1" xmlns="http://www.w3.org/2000/svg" xmlns:xlink="http://www.w3.org/1999/xlink">
    <title>路径</title>
    <g id="页面-1" stroke="none" stroke-width="1" fill="none" fill-rule="evenodd">
        <g id="管户客户" transform="translate(-88.000000, -241.000000)" fill="#FFC931" fill-rule="nonzero">
            <g id="编组-5" transform="translate(16.000000, 220.000000)">
                <g id="StarFill" transform="translate(72.000000, 21.000000)">
                    <path d="M6.55380422,0.134679855 L6.55380434,0.134679915 C6.80297929,0.263917144 7.00266293,0.471612878 7.1220009,0.725677359 L8.29799524,3.20516467 L10.9283862,3.6026631 C11.6123826,3.70616258 12.0863806,4.36675919 11.9867807,5.07805087 L11.9867807,5.0780509 C11.948335,5.3590829 11.820425,5.62027 11.6219831,5.82294756 L9.7187883,7.75283299 L10.167886,10.478019 C10.2848853,11.186615 9.8273882,11.859512 9.14639128,11.9810114 L9.14639144,11.9810113 C8.87461957,12.0293072 8.59450447,11.9831507 8.35259558,11.8502122 L6,10.5635183 L3.64742011,11.8502122 C3.0354233,12.1847109 2.27942724,11.9402117 1.95752423,11.3036155 L1.95752426,11.3036155 C1.82925932,11.0486707 1.78524547,10.7595852 1.83182487,10.4780202 L2.28122206,7.75283415 L0.378027294,5.82294872 C-0.116970125,5.32105081 -0.127169603,4.49695597 0.35522746,3.98245813 L0.355227358,3.98245824 C0.544403559,3.778906 0.79669615,3.64509638 1.07132409,3.60266019 L3.70171507,3.20516175 L4.8777094,0.725969752 C5.18370781,0.0809725837 5.93400436,-0.183325126 6.55379598,0.134672778 L6.55380422,0.134679855 Z" id="路径"></path>
                </g>
            </g>
        </g>
    </g>
</svg>