<?xml version="1.0" encoding="UTF-8"?>
<svg width="18px" height="18px" viewBox="0 0 18 18" version="1.1" xmlns="http://www.w3.org/2000/svg" xmlns:xlink="http://www.w3.org/1999/xlink">
    <title>右箭头</title>
    <g id="页面-1" stroke="none" stroke-width="1" fill="none" fill-rule="evenodd">
        <g id="风险属性" transform="translate(-345.000000, -559.000000)">
            <g id="信息展示:40/列表List:2/提示+箭头:4/样式:单行不带图" transform="translate(0.000000, 544.000000)">
                <g id="右箭头" transform="translate(345.000000, 15.000000)">
                    <rect id="Rectangle" x="0" y="0" width="18" height="18"></rect>
                    <g id="right" transform="translate(4.500000, 1.636364)" fill="#CCCCCC" fill-rule="nonzero">
                        <path d="M0.549673845,1.4186073 L7.20867964,7.40250685 C7.42285176,7.59498754 7.44046507,7.9246305 7.24800195,8.1388202 L7.24800195,8.13882021 C7.23560254,8.15261149 7.22247655,8.16573164 7.20867964,8.17812494 L0.549673842,14.1620421 C0.282486031,14.4021244 0.260530927,14.8133475 0.500630816,15.0805177 C0.740713126,15.3477055 1.15193626,15.3696431 1.41910649,15.1295608 L8.07811229,9.14566122 L8.07811233,9.14566119 C8.12632672,9.10233528 8.17219478,9.05646722 8.21552069,9.00825283 C8.888166,8.25972266 8.82664249,7.10763343 8.07811233,6.43498811 L1.41910653,0.451088571 C1.15191872,0.210988682 0.740713163,0.232943786 0.500630853,0.500131597 C0.260530964,0.76730183 0.282486068,1.17852496 0.549673878,1.41860728 L0.549673845,1.4186073 Z" id="路径"></path>
                    </g>
                </g>
            </g>
        </g>
    </g>
</svg>