<?xml version="1.0" encoding="UTF-8"?>
<svg width="16px" height="16px" viewBox="0 0 16 16" version="1.1" xmlns="http://www.w3.org/2000/svg" xmlns:xlink="http://www.w3.org/1999/xlink">
    <title>列表选中</title>
    <g id="页面-1" stroke="none" stroke-width="1" fill="none" fill-rule="evenodd">
        <g id="重点产品-保险类" transform="translate(-16.000000, -166.000000)" fill="#C9AC80" fill-rule="nonzero">
            <path d="M24,166 C28.4182857,166 32,169.581714 32,174 C32,178.418286 28.4182857,182 24,182 C19.5817143,182 16,178.418286 16,174 C16,169.581714 19.5817143,166 24,166 Z M27.455625,171.500946 L27.455625,171.500946 C27.2324822,171.277871 26.8707679,171.277871 26.647625,171.500946 L23.0148572,175.132946 L21.5470482,173.665137 L21.5470483,173.665138 C21.3238197,173.441909 20.9618947,173.441909 20.7386679,173.665137 C20.5154393,173.888366 20.5154393,174.250291 20.7386678,174.473518 C20.7386678,174.473518 20.7386678,174.473518 20.7386678,174.473518 L22.5569536,176.292571 L22.5569535,176.292571 C22.6078728,176.358901 22.6726064,176.413366 22.7466678,176.45219 L22.7466678,176.45219 C23.0186732,176.606436 23.3641393,176.513406 23.5219053,176.243428 L27.4556196,172.308571 L27.4556196,172.308571 C27.6788482,172.085485 27.6789643,171.723676 27.4558786,171.500449 C27.4557923,171.500363 27.455706,171.500277 27.4556196,171.50019 L27.455625,171.500946 Z" id="列表选中"></path>
        </g>
    </g>
</svg>