<?xml version="1.0" encoding="UTF-8"?>
<svg width="16px" height="16px" viewBox="0 0 16 16" version="1.1" xmlns="http://www.w3.org/2000/svg" xmlns:xlink="http://www.w3.org/1999/xlink">
    <title>财富诊断报告2</title>
    <defs>
        <linearGradient x1="26.137584%" y1="0%" x2="62.1568514%" y2="84.2262863%" id="linearGradient-1">
            <stop stop-color="#F6D6AE" offset="0%"></stop>
            <stop stop-color="#DDA875" offset="100%"></stop>
        </linearGradient>
    </defs>
    <g id="页面-1" stroke="none" stroke-width="1" fill="none" fill-rule="evenodd">
        <g id="财富诊断报告" transform="translate(-16.000000, -392.000000)" fill="url(#linearGradient-1)" fill-rule="nonzero">
            <g id="财富诊断报告2" transform="translate(16.000000, 392.000000)">
                <path d="M6.85248836,3.84480561 C6.85248836,3.84480561 6.85248836,3.84480561 6.85248836,3.84480561 C4.70357871,4.44915287 3.36754673,6.63709126 3.84284197,8.85727159 C4.33686327,11.1649174 6.60064947,12.6335494 8.89912941,12.137567 C9.23936489,12.064148 9.56889452,11.9492177 9.88046903,11.795657 C9.89010294,11.7909089 9.90033351,11.7857644 9.91116076,11.7802235 C10.0935917,11.6868852 10.3136399,11.7080739 10.4748972,11.8345224 C10.4748972,11.8345224 10.4748972,11.8345224 10.4748972,11.8345224 C11.0450022,12.2815656 11.8768012,12.9338138 12.9702941,13.7912671 C12.9812798,13.7998815 12.9932524,13.8092696 13.0062117,13.8194316 C13.1240029,13.9117766 13.1446132,14.0821278 13.0522558,14.1999093 C13.0394357,14.2162586 13.0247779,14.2310795 13.0085715,14.2440798 C13.0085715,14.2440798 13.0085715,14.2440798 13.0085715,14.2440798 C9.67180009,16.9207461 4.79536618,16.500529 1.96639412,13.2345385 C-0.937205994,9.88239146 -0.584359708,4.80173903 2.75449801,1.88658199 C3.90354768,0.883346085 5.31192591,0.231030779 6.81350817,0.00295973085 C6.81350817,0.00295973085 6.81350817,0.00295973085 6.81350817,0.00295973085 C6.95431344,-0.0184267797 7.08579586,0.0783812501 7.10718237,0.219186517 C7.10912896,0.232002568 7.11010641,0.244947155 7.11013283,0.257910194 C7.11013283,0.261028142 7.11013283,0.264079998 7.11013283,0.267065762 C7.1101329,0.994421751 7.11013301,2.06054416 7.11013316,3.46543298 C7.11013316,3.47741761 7.11013316,3.49050043 7.11013316,3.50468143 C7.11015266,3.66297471 7.00487015,3.80195061 6.85248836,3.84480561 Z M14.5676912,12.006333 C14.566794,12.0056291 14.5659043,12.0049311 14.5650219,12.0042389 C13.4594322,11.1368419 12.6202735,10.4784749 12.0475458,10.029138 C12.0475458,10.029138 12.0475458,10.029138 12.0475458,10.029138 C11.9193261,9.92854244 11.8746722,9.75436049 11.9386957,9.60449139 C11.9476042,9.58363209 11.9554409,9.56474254 11.9622058,9.54782275 C12.0877432,9.23383952 12.1754738,8.90585749 12.2234891,8.57086781 C12.2243383,8.56494347 12.2251986,8.55874112 12.22607,8.55226074 C12.2470048,8.39671782 12.3797509,8.28062747 12.5366963,8.28062747 C12.5366963,8.28062747 12.5366963,8.28062747 12.5366963,8.28062747 C13.2584564,8.28062747 14.3169914,8.28062747 15.7123014,8.28062747 C15.7123014,8.28062747 15.7123014,8.28062747 15.7123014,8.28062747 C15.8711931,8.28062747 16.0000002,8.40943462 16.0000002,8.5683263 C16.0000002,8.5754438 15.9997361,8.58255885 15.9992035,8.58965639 C15.9985982,8.59779746 15.9979996,8.6055646 15.9974078,8.61295781 C15.9041502,9.77784977 15.5577448,10.9082043 14.9825779,11.9242995 C14.9825779,11.9242995 14.9825779,11.9242995 14.9825779,11.9242995 C14.9066947,12.0583555 14.7365053,12.1055139 14.6024493,12.0296307 C14.5902937,12.0227499 14.5786721,12.0149658 14.5676912,12.006333 Z M15.4488082,6.26883194 C15.4488082,6.26883194 15.4488082,6.26883194 15.4488082,6.26883194 C14.0181003,6.26883194 12.9295313,6.26883194 12.1831013,6.26883194 C12.1831013,6.26883194 12.1831013,6.26883194 12.1831013,6.26883194 C12.0275436,6.26883194 11.8854348,6.18064247 11.8163823,6.04125112 C11.8133804,6.03519165 11.8104948,6.02942786 11.8077257,6.02395975 C11.2964351,5.01432693 10.4064578,4.24829024 9.33326235,3.89558609 C9.33326235,3.89558609 9.33326235,3.89558609 9.33326235,3.89558609 C9.20241507,3.85258332 9.11397289,3.73042088 9.11396902,3.59268835 C9.11396902,3.55549969 9.11396902,3.52351757 9.11396902,3.49674201 C9.11396902,2.08916585 9.11396902,1.02036079 9.11396902,0.290326806 C9.11396902,0.28723852 9.11396902,0.284079112 9.11396902,0.280848582 C9.11399788,0.143022959 9.22572762,0.0312932168 9.36355324,0.0312932168 C9.37819369,0.0312932168 9.39280574,0.0325815599 9.40722032,0.0351433387 C9.40722032,0.0351433387 9.40722032,0.0351433387 9.40722032,0.0351433387 C12.4688042,0.579252288 14.9394178,2.85384761 15.7484716,5.86036507 C15.7497047,5.86494737 15.7509605,5.86965032 15.752239,5.87447391 C15.7966854,6.04206159 15.6968329,6.21393364 15.5292384,6.25835398 C15.5029942,6.2653099 15.4759586,6.26883194 15.4488082,6.26883194 Z" id="形状"></path>
            </g>
        </g>
    </g>
</svg>