<?xml version="1.0" encoding="UTF-8"?>
<svg width="16px" height="16px" viewBox="0 0 16 16" version="1.1" xmlns="http://www.w3.org/2000/svg" xmlns:xlink="http://www.w3.org/1999/xlink">
    <title>财富诊断报告1</title>
    <defs>
        <linearGradient x1="26.137584%" y1="0%" x2="62.1568514%" y2="84.2262863%" id="linearGradient-1">
            <stop stop-color="#F6D6AE" offset="0%"></stop>
            <stop stop-color="#DDA875" offset="100%"></stop>
        </linearGradient>
    </defs>
    <g id="页面-1" stroke="none" stroke-width="1" fill="none" fill-rule="evenodd">
        <g id="财富诊断报告" transform="translate(-16.000000, -104.000000)">
            <g id="财富诊断报告1" transform="translate(16.000000, 104.000000)">
                <path d="M14.4203398,5.03956532 L0.578512397,5.03956532 C0.2599032,5.03956532 0.0012643222,5.29719506 0,5.61582613 L0,15.4237392 C0,15.7405678 0.259412305,16 0.578512397,16 L14.4214876,16 C14.7400968,16 14.9987357,15.7423703 15,15.4237392 L15,5.61582613 C14.9981094,5.29745703 14.7398373,5.04019015 14.4214876,5.03956532 L14.4203398,5.03956532 Z M2.88452709,2.15481748 L12.1154729,2.15481748 C12.2727273,2.15481748 12.4024702,2.02395347 12.4024702,1.86324329 L12.4024702,1.2915742 C12.403664,1.21466927 12.3739748,1.14048897 12.3200253,1.08567209 C12.2660759,1.03085522 12.1923818,1 12.1154729,1 L2.88452709,1 C2.72503952,1.00189015 2.59692495,1.13206451 2.59752979,1.2915742 L2.59752979,1.86209536 C2.59633603,1.93900028 2.62602517,2.01318059 2.67997466,2.06799746 C2.73392415,2.12281433 2.8076182,2.1536794 2.88452709,2.15366955 L2.88452709,2.15481748 Z M1.44513315,4.17287824 C1.36801822,4.17287824 1.29409472,4.14208827 1.23978219,4.08734049 C1.18546965,4.03259271 1.15526493,3.95842245 1.15586783,3.88130405 L1.15586783,3.31078289 C1.15586783,3.14892477 1.2855831,3.0192087 1.44513315,3.0192087 L13.5571625,3.0192087 C13.7178604,3.0192087 13.8464187,3.14662891 13.8464187,3.31078289 L13.8464187,3.88130405 C13.8464187,4.04201424 13.7167126,4.17287824 13.5571625,4.17287824 L1.44398531,4.17287824 L1.44513315,4.17287824 Z M11.2396694,10.5415933 C11.3292011,10.628836 11.4003673,10.7321497 11.4439853,10.8480906 C11.4943539,10.9675728 11.5197445,11.0960982 11.5186324,11.2257595 C11.5194485,11.4800033 11.4161642,11.7235075 11.2327824,11.8995944 C11.0465137,12.0792862 10.7971322,12.1786342 10.5383379,12.1762455 C10.2819151,12.1762455 10.0353182,12.0775992 9.84963269,11.9007423 C9.59283942,11.6495458 9.50231694,11.2736035 9.61662075,10.9330374 C9.64876033,10.8389072 9.69008264,10.7551083 9.7405877,10.6793449 L9.07139578,9.51419607 L7.90518825,12.0603046 C7.96478107,12.144097 8.01266661,12.2356271 8.04752066,12.332364 C8.16983494,12.6758897 8.08007158,13.0592086 7.81795225,13.3126961 C7.43182334,13.6822254 6.82322717,13.6822254 6.43709826,13.3126961 C6.25760271,13.1343438 6.15642357,12.8919083 6.15587695,12.6388613 C6.15587695,12.5791689 6.16046832,12.5240683 6.16735537,12.4701156 C6.17466943,12.4186226 6.19016967,12.3686305 6.21326905,12.3220326 L4.86455464,10.7321497 L4.79568411,10.7355935 C4.5134585,10.7575269 4.23518514,10.6586426 4.03007346,10.4635341 C3.84886441,10.2875725 3.74660809,10.045738 3.74660809,9.79314303 C3.74660809,9.54054807 3.84886441,9.29871353 4.03007346,9.12275197 C4.21604623,8.94562116 4.46310694,8.84695376 4.71992654,8.8472488 C4.97879592,8.84510769 5.22831124,8.9439332 5.41551882,9.12275197 C5.66945714,9.36685184 5.76366759,9.73350074 5.65886134,10.0697941 C5.63252871,10.1563224 5.59551232,10.23923 5.5486685,10.3165991 L6.72865014,11.7710262 C6.78948577,11.7434759 6.85261708,11.7228132 6.91919192,11.7044463 C7.0232914,11.6721036 7.13393948,11.666966 7.2405877,11.6895232 L8.42630854,9.09749751 C8.2186841,8.91964924 8.10021478,8.65916485 8.10261708,8.38578098 C8.10288845,8.12956408 8.20596396,7.88417383 8.38873407,7.70462677 C8.57150417,7.5250797 8.81867806,7.42639699 9.0748393,7.4307033 C9.33351779,7.42775983 9.58296756,7.52672268 9.76928375,7.70620648 C9.96052803,7.89024788 10.0647209,8.14678986 10.0559664,8.4120719 C10.0472119,8.67735394 9.92633199,8.92646721 9.72337006,9.09749751 L10.37764,10.2637943 L10.5429293,10.2637943 C10.8016545,10.2629312 11.0506162,10.3625236 11.2373737,10.5415933 L11.2396694,10.5415933 Z" id="形状" fill="url(#linearGradient-1)" fill-rule="nonzero"></path>
                <rect id="矩形" x="0" y="0" width="16" height="16"></rect>
            </g>
        </g>
    </g>
</svg>