<?xml version="1.0" encoding="UTF-8"?>
<svg width="16px" height="16px" viewBox="0 0 16 16" version="1.1" xmlns="http://www.w3.org/2000/svg" xmlns:xlink="http://www.w3.org/1999/xlink">
    <title>财富诊断报告4</title>
    <defs>
        <linearGradient x1="29.2131843%" y1="0%" x2="60.5899684%" y2="84.2262863%" id="linearGradient-1">
            <stop stop-color="#F6D6AE" offset="0%"></stop>
            <stop stop-color="#DDA875" offset="100%"></stop>
        </linearGradient>
    </defs>
    <g id="页面-1" stroke="none" stroke-width="1" fill="none" fill-rule="evenodd">
        <g id="财富诊断报告" transform="translate(-16.000000, -1152.000000)">
            <g id="财富诊断报告4" transform="translate(16.000000, 1152.000000)">
                <rect id="矩形" x="0" y="0" width="16" height="16"></rect>
                <path d="M1.91641029,6.35178266 L3.22962624,6.35178266 C3.73574567,6.35178266 4.14603652,6.77707105 4.14603652,7.30169084 L4.14603652,15.0491419 C4.14603652,15.5737617 3.73574566,15.9990501 3.22962624,15.9990501 L1.91641029,15.9990501 C1.41029087,15.9990501 1,15.5737617 1,15.0491419 L1,7.30169084 C1,6.77707104 1.41029086,6.35178266 1.91641029,6.35178266 L1.91641029,6.35178266 Z M7.34339203,1 L8.65660798,1 C9.16272741,1 9.57301826,1.42528838 9.57301826,1.94990818 L9.57301826,15.0491419 C9.57301826,15.5737617 9.1627274,15.9990501 8.65660798,15.9990501 L7.34339203,15.9990501 C6.83727261,15.9990501 6.42698174,15.5737617 6.42698174,15.0491419 L6.42698174,1.94990818 C6.42698174,1.42528838 6.8372726,1 7.34339203,1 L7.34339203,1 Z M12.7703738,9.39813819 L14.0835897,9.39813819 C14.5897091,9.39813819 15,9.82342656 15,10.3480464 L15,15.0500918 C15,15.5747116 14.5897091,16 14.0835897,16 L12.7703738,16 C12.2642543,16 11.8539635,15.5747116 11.8539635,15.0500918 L11.8539635,10.3480464 C11.8539635,9.82342656 12.2642544,9.39813819 12.7703738,9.39813819 L12.7703738,9.39813819 Z" id="形状" fill="url(#linearGradient-1)" fill-rule="nonzero"></path>
            </g>
        </g>
    </g>
</svg>