<?xml version="1.0" encoding="UTF-8"?>
<svg width="16px" height="16px" viewBox="0 0 16 16" version="1.1" xmlns="http://www.w3.org/2000/svg" xmlns:xlink="http://www.w3.org/1999/xlink">
    <title>财富诊断报告3</title>
    <defs>
        <linearGradient x1="26.137584%" y1="15.2777778%" x2="62.1568514%" y2="73.7682544%" id="linearGradient-1">
            <stop stop-color="#F6D6AE" offset="0%"></stop>
            <stop stop-color="#DDA875" offset="100%"></stop>
        </linearGradient>
    </defs>
    <g id="页面-1" stroke="none" stroke-width="1" fill="none" fill-rule="evenodd">
        <g id="财富诊断报告" transform="translate(-16.000000, -644.000000)">
            <g id="财富诊断报告3" transform="translate(16.000000, 644.000000)">
                <path d="M5.47267305,12.86036 C5.47480637,11.6647343 6.34929046,10.6410298 7.55212829,10.425998 L7.55212829,8.16738154 C6.9060874,8.07681437 6.30413515,7.79363987 5.8285822,7.35644905 L3.94112591,8.65620086 C4.39143454,9.67469035 3.91214829,10.8572785 2.87055401,11.2975983 C1.82895973,11.7379182 0.619544151,11.2692635 0.169235514,10.250774 C-0.281073124,9.23228452 0.198213132,8.04969637 1.23980741,7.60937654 C1.96887007,7.30117005 2.81437654,7.43154505 3.41117326,7.94417954 L5.26218532,6.65781289 C4.3818346,5.17866508 4.89472067,3.28179577 6.40742347,2.42097311 C7.92012627,1.56015046 9.86002673,2.06165962 10.7403774,3.54080743 C11.3170854,4.50975442 11.3135299,5.70781374 10.7309553,6.67345789 L12.5777007,7.95634787 C13.2969856,7.32654971 14.3682686,7.27283521 15.1497754,7.82736354 C16.0688815,8.4775002 16.2749248,9.73292452 15.6100396,10.631469 C14.9451543,11.5300135 13.6612503,11.7316602 12.742322,11.0815235 C11.966504,10.5327317 11.6815278,9.53266852 12.0550369,8.67062903 L10.1608251,7.36896505 C9.68727211,7.79908203 9.09074646,8.07762921 8.4509678,8.16738154 L8.4509678,10.4258242 C9.8257158,10.6681478 10.7393108,11.9541668 10.4914899,13.29842 C10.2436691,14.6426731 8.92847629,15.5360026 7.55372828,15.2936789 C6.34946823,15.0814284 5.47338416,14.056681 5.47320638,12.8601861 L5.47267305,12.8601861 L5.47267305,12.86036 Z" id="路径" fill="url(#linearGradient-1)" fill-rule="nonzero"></path>
                <rect id="矩形" x="0" y="0" width="16" height="16"></rect>
            </g>
        </g>
    </g>
</svg>